<svg width="20" height="20" viewBox="0 0 20 20" fill="none" xmlns="http://www.w3.org/2000/svg">
<path d="M9.1033 3.4833C9.47013 2.74013 10.5299 2.74013 10.8967 3.4833L12.3426 6.41243C12.4881 6.70728 12.7693 6.91174 13.0946 6.95929L16.3296 7.43212C17.1495 7.55197 17.4763 8.55981 16.8827 9.13797L14.5435 11.4163C14.3076 11.6461 14.1999 11.9772 14.2556 12.3017L14.8074 15.5193C14.9476 16.3363 14.09 16.9592 13.3564 16.5734L10.4655 15.0531C10.1741 14.8999 9.82594 14.8999 9.53455 15.0531L6.64364 16.5734C5.91001 16.9592 5.05246 16.3363 5.19258 15.5193L5.74443 12.3017C5.80009 11.9772 5.69242 11.6461 5.45655 11.4163L3.11735 9.13797C2.52376 8.55981 2.85054 7.55197 3.67046 7.43212L6.90537 6.95929C7.23073 6.91174 7.51191 6.70728 7.65745 6.41243L9.1033 3.4833Z" fill="#FFB800"/>
</svg>
